<?xml version="1.0" encoding="UTF-8" standalone="no"?>
<svg
   xmlns:dc="http://purl.org/dc/elements/1.1/"
   xmlns:cc="http://creativecommons.org/ns#"
   xmlns:rdf="http://www.w3.org/1999/02/22-rdf-syntax-ns#"
   xmlns:svg="http://www.w3.org/2000/svg"
   xmlns="http://www.w3.org/2000/svg"
   xmlns:sodipodi="http://sodipodi.sourceforge.net/DTD/sodipodi-0.dtd"
   xmlns:inkscape="http://www.inkscape.org/namespaces/inkscape"
   width="1000.4255"
   height="161.52882"
   viewBox="0 0 264.6959 42.737836"
   version="1.1"
   id="svg8"
   inkscape:version="1.0.2 (e86c870879, 2021-01-15, custom)"
   sodipodi:docname="BCA_Digital_logo.svg">
  <defs
     id="defs2" />
  <sodipodi:namedview
     id="base"
     pagecolor="#ffffff"
     bordercolor="#666666"
     borderopacity="1.0"
     inkscape:pageopacity="0.0"
     inkscape:pageshadow="2"
     inkscape:zoom="2.56"
     inkscape:cx="925.20248"
     inkscape:cy="56.664394"
     inkscape:document-units="mm"
     inkscape:current-layer="g59"
     inkscape:document-rotation="0"
     showgrid="false"
     units="px"
     inkscape:window-width="1366"
     inkscape:window-height="715"
     inkscape:window-x="-8"
     inkscape:window-y="-8"
     inkscape:window-maximized="1"
     showguides="false" />
  <metadata
     id="metadata5">
    <rdf:RDF>
      <cc:Work
         rdf:about="">
        <dc:format>image/svg+xml</dc:format>
        <dc:type
           rdf:resource="http://purl.org/dc/dcmitype/StillImage" />
        <dc:title></dc:title>
      </cc:Work>
    </rdf:RDF>
  </metadata>
  <g
     inkscape:label="Layer 1"
     inkscape:groupmode="layer"
     id="layer1"
     transform="translate(813.28739,251.64565)">
    <g
       id="g59"
       transform="matrix(0.18340819,0,0,0.18340819,-664.12382,-205.49178)">
      <g
         id="g64"
         transform="matrix(0.687797,0,0,0.687797,-813.28738,-251.64562)">
        <path
           inkscape:connector-curvature="0"
           d="m 147.34669,237.88336 c 0,-12.4911 0.13562,-45.8787 -0.17228,-49.99236 0.26842,-49.68172 -35.85414,-84.72767 -58.674773,-81.99559 -15.79108,1.37038 -29.025179,7.8093 -36.131016,26.33267 -6.585974,17.26296 -0.697885,40.22487 21.198868,45.61295 23.413963,5.78646 37.086001,10.60092 46.980501,17.39303 12.12372,8.3152 22.02105,24.2022 22.28381,42.669"
           style="fill:#0060af;fill-opacity:1;fill-rule:nonzero;stroke:none"
           id="path20" />
        <path
           inkscape:connector-curvature="0"
           d="m 156.69305,313.40296 c -41.28452,0 -83.71334,-10.1684 -126.085648,-30.2796 l -1.039728,-0.5113 -0.497275,-1.0595 C 10.055561,241.41496 0,197.51416 0,154.56275 0,111.67615 9.6430481,69.654125 28.67202,29.570445 l 0.522703,-1.06518 1.05952,-0.53118 C 69.45081,9.4056654 111.61685,-4.4667969e-5 155.61942,-4.4667969e-5 c 40.99069,0 84.7672,10.470869667969 126.57727,30.333339667969 l 1.07365,0.47749 0.49444,1.08494 c 19.37931,40.87763 29.59874,84.767165 29.59874,127.006815 0,42.07562 -9.81258,84.13432 -29.2145,124.98642 l -0.51139,1.0737 -1.07929,0.4974 c -38.5976,18.2716 -82.12548,27.9429 -125.86529,27.9429 M 34.529044,277.61956 c 41.163036,19.3623 82.215886,29.1411 122.164006,29.1411 42.3582,0 84.4847,-9.259 121.98321,-26.8101 18.62776,-39.5866 28.07019,-80.3286 28.07019,-121.04802 0,-40.88347 -9.85493,-83.411095 -28.49683,-123.085165 -40.57537,-19.0742 -82.95049,-29.1890696 -122.6302,-29.1890696 -42.60116,0 -83.43363,9.0355796 -121.446374,26.8609396 C 15.926699,72.341065 6.6396702,113.05204 6.6396702,154.56275 c 0,41.58951 9.6515028,84.13431 27.8893738,123.05681"
           style="fill:#0060af;fill-opacity:1;fill-rule:nonzero;stroke:none"
           id="path22" />
        <path
           inkscape:connector-curvature="0"
           d="m 137.56237,237.90306 c 0.0763,-16.0114 -8.86041,-30.1694 -20.54055,-37.7782 -10.36068,-6.7244 -24.270055,-11.1434 -46.70926,-16.83366 -6.936336,-1.77427 -14.191926,-5.71569 -16.438108,-10.73929 -5.941786,5.98692 -7.021076,19.44705 -5.97569,27.31295 1.21493,9.1034 11.852506,24.1062 27.869603,24.694 9.781485,0.3926 22.148198,-2.1051 28.078685,-3.365 10.23073,-2.2096 26.41735,4.1984 28.9941,16.6895"
           style="fill:#0060af;fill-opacity:1;fill-rule:nonzero;stroke:none"
           id="path24" />
        <path
           inkscape:connector-curvature="0"
           d="m 155.61942,28.465705 c -27.15761,0 -50.61679,17.91012 -50.53203,48.90172 0.0848,26.061425 21.04348,40.013175 28.52227,49.978385 11.30153,15.01678 17.4185,32.79128 18.05421,59.98852 0.49444,21.64533 0.46901,43.01923 0.5792,50.59413 h 5.99548 c -0.10447,-7.9252 -0.37579,-30.6158 -0.0651,-51.26375 0.40685,-27.20571 6.7442,-44.30212 18.05139,-59.3189 7.54378,-9.96521 28.48553,-23.91696 28.53075,-49.978385 0.10171,-30.9916 -23.34334,-48.90172 -50.47836,-48.90172"
           style="fill:#0060af;fill-opacity:1;fill-rule:nonzero;stroke:none"
           id="path26" />
        <path
           inkscape:connector-curvature="0"
           d="m 162.51335,237.88336 c 0,-12.4911 -0.14134,-45.8787 0.16105,-49.99236 -0.26558,-49.68172 35.83437,-84.72767 58.67478,-81.99559 15.79108,1.37038 29.01106,7.8093 36.13669,26.33267 6.58032,17.26296 0.6583,40.22487 -21.213,45.61295 -23.42528,5.78646 -37.08037,10.60092 -47.00029,17.39303 -12.10961,8.3152 -21.31472,24.2022 -21.59725,42.669"
           style="fill:#0060af;fill-opacity:1;fill-rule:nonzero;stroke:none"
           id="path28" />
        <path
           inkscape:connector-curvature="0"
           d="m 172.29202,237.90306 c -0.0848,-16.0114 8.84911,-30.1694 20.49535,-37.7782 10.40306,-6.7244 24.32939,-11.1434 46.74882,-16.83366 6.95045,-1.77427 14.19756,-5.71569 16.40418,-10.73929 5.97006,5.98692 7.04653,19.44705 6.00112,27.31295 -1.24034,9.1034 -11.84967,24.1062 -27.83852,24.694 -9.77866,0.3926 -22.21035,-2.1051 -28.11541,-3.365 -10.19116,-2.2096 -26.423,4.1984 -29.01106,16.6895"
           style="fill:#0060af;fill-opacity:1;fill-rule:nonzero;stroke:none"
           id="path30" />
        <path
           inkscape:connector-curvature="0"
           d="m 180.66928,289.59346 -3.47522,-25.3577 8.38857,-1.2714 c 2.04276,-0.2798 4.52909,0.076 5.52362,1.3561 1.09908,1.3363 1.43531,2.4412 1.64721,4.1928 0.31644,2.1671 -0.3108,4.6733 -2.75193,5.9221 v 0.076 c 2.7265,0 4.3737,1.958 4.85118,5.2637 0.0706,0.6978 0.27689,2.3846 0.0706,3.7916 -0.55379,3.3481 -2.55132,4.4246 -5.92201,4.8965 z m 5.39931,-4.5403 c 0.99453,-0.142 2.00319,-0.1949 2.79148,-0.698 1.20645,-0.7883 1.09626,-2.475 0.92956,-3.7265 -0.42099,-2.752 -1.13863,-3.7973 -4.05726,-3.3651 l -1.83367,0.2825 1.16123,7.6483 z m -1.75738,-11.717 c 1.11038,-0.1801 2.61629,-0.3136 3.24353,-1.3674 0.32775,-0.7035 0.74874,-1.263 0.47185,-2.8283 -0.34187,-1.8563 -0.95781,-3.0061 -3.31418,-2.5598 l -2.19533,0.3533 0.86457,6.4984"
           style="fill:#0060af;fill-opacity:1;fill-rule:nonzero;stroke:none"
           id="path32" />
        <path
           inkscape:connector-curvature="0"
           d="m 217.00657,274.34206 c 0.065,0.4719 0.14134,0.9974 0.16952,1.4691 0.67809,4.6253 -0.16952,8.4537 -5.36823,9.5075 -7.68505,1.4806 -9.15709,-3.2944 -10.51043,-9.9792 l -0.72047,-3.6165 c -1.05952,-6.3968 -1.51442,-11.2394 5.9785,-12.7312 4.22395,-0.7713 7.01544,0.9097 8.17668,5.1139 0.18075,0.6272 0.40685,1.2489 0.49161,1.8789 l -4.59691,0.9494 c -0.53116,-1.5794 -1.23468,-4.4019 -3.30286,-4.1646 -3.71256,0.4463 -2.48636,5.0658 -2.10493,6.9956 l 1.38161,6.942 c 0.41533,2.0993 1.24036,5.4529 4.45282,4.8059 2.60782,-0.5227 1.47202,-4.5856 1.24034,-6.2496"
           style="fill:#0060af;fill-opacity:1;fill-rule:nonzero;stroke:none"
           id="path34" />
        <path
           inkscape:connector-curvature="0"
           d="m 224.38364,282.01576 -1.59068,-26.2422 6.17628,-1.8845 12.94875,22.8236 -4.8625,1.4549 -3.06836,-5.8004 -5.39932,1.6217 0.69789,6.5944 z m 3.75212,-12.265 3.90185,-1.1301 -5.18175,-10.6179"
           style="fill:#0060af;fill-opacity:1;fill-rule:nonzero;stroke:none"
           id="path36" />
        <path
           inkscape:connector-curvature="0"
           d="m 71.835428,262.17606 c 1.932564,-6.1876 3.66454,-10.7423 11.038775,-8.7192 3.947071,1.1019 6.393862,2.8422 6.278014,7.4278 -0.01907,1.0201 -0.355999,2.0597 -0.576379,3.0684 l -4.591259,-1.2685 c 0.601808,-2.5316 0.983235,-4.5404 -2.135991,-5.501 -3.605185,-0.9889 -4.483866,3.382 -4.981141,5.2692 l -1.867573,6.8799 c -0.593331,2.0428 -1.305328,5.419 1.867573,6.2893 2.621951,0.7063 4.21265,-1.8675 5.16198,-5.6254 l -3.212464,-0.8504 1.110377,-3.981 7.552256,2.4299 -3.585415,13.2595 -3.475224,-0.9437 0.782625,-2.8028 h -0.09896 c -1.599155,2.2915 -3.551489,2.5316 -5.260854,2.2038 -7.552256,-2.0428 -6.763973,-6.9786 -4.96137,-13.5731"
           style="fill:#0060af;fill-opacity:1;fill-rule:nonzero;stroke:none"
           id="path38" />
        <path
           inkscape:connector-curvature="0"
           d="m 99.945183,273.37576 -2.274429,10.7874 -5.119598,-1.1076 5.455826,-25.1884 8.727598,1.9722 c 5.10831,1.1019 6.65097,3.3763 5.92768,8.0581 -0.41252,2.6869 -1.73761,5.5828 -4.97269,5.3484 l -0.0339,-0.044 c 2.73498,0.9578 2.96665,2.3365 2.48917,4.7213 -0.20618,1.0141 -1.62742,7.1708 -0.64703,8.1652 l 0.0339,0.7544 -5.2976,-1.3816 c -0.22038,-1.7064 0.52836,-4.7748 0.82502,-6.473 0.29949,-1.503 0.77697,-3.6221 -0.74874,-4.4188 -1.19513,-0.6358 -1.63871,-0.6046 -2.98924,-0.9155 z m 0.873047,-3.9018 3.44697,0.9295 c 2.09361,0.3023 3.25767,-0.7826 3.67018,-3.3113 0.37295,-2.3197 -0.11019,-3.2266 -1.98908,-3.6759 l -3.6956,-0.7486"
           style="fill:#0060af;fill-opacity:1;fill-rule:nonzero;stroke:none"
           id="path40" />
        <path
           inkscape:connector-curvature="0"
           d="m 132.78181,263.49536 5.06311,0.5878 -2.18121,17.7067 c -1.05952,5.614 -3.22942,8.0693 -9.4057,7.3007 -6.28367,-0.794 -7.77547,-3.656 -7.39405,-9.3153 l 2.19533,-17.6925 5.10265,0.5849 -2.18967,17.2969 c -0.23168,1.8789 -0.6668,4.6618 2.67565,4.9981 2.96381,0.2261 3.63627,-1.7376 3.96966,-4.1787"
           style="fill:#0060af;fill-opacity:1;fill-rule:nonzero;stroke:none"
           id="path42" />
        <path
           inkscape:connector-curvature="0"
           d="m 143.42787,290.05966 1.52289,-25.3211 9.72781,0.4211 c 4.59689,0.2259 5.80051,3.9808 5.65641,7.5635 -0.13286,2.1783 -0.81371,4.611 -2.71237,5.9305 -1.55679,1.1216 -3.55717,1.3871 -5.41344,1.2969 l -3.17009,-0.1759 -0.63287,10.6121 z m 5.75531,-14.1467 2.57675,0.1441 c 2.09361,0.076 3.48088,-0.7515 3.6617,-3.8255 0.10171,-2.9525 -1.0143,-3.4526 -3.72667,-3.5713 l -2.04275,-0.07"
           style="fill:#0060af;fill-opacity:1;fill-rule:nonzero;stroke:none"
           id="path44" />
        <path
           inkscape:connector-curvature="0"
           d="m 829.5219,52.939205 -38.66259,70.174035 c -14.5931,-11.84967 -32.41283,-20.57163 -55.1487,-20.57163 -53.80382,0 -75.65817,40.10642 -75.65817,68.35745 0,20.97 13.73137,51.9107 61.60471,51.9107 20.09415,0 48.66161,-13.9799 56.88348,-20.3398 l -38.23876,81.4135 c -18.22657,3.6363 -24.21356,5.8909 -39.64298,6.3684 -85.68547,2.557 -120.31057,-50.0799 -120.28514,-103.86686 0.0566,-71.10373 63.27451,-157.577415 168.07371,-157.577415 6.42209,0 14.27667,2.22076 20.9926,4.68166 l 6.78658,-8.67958"
           style="fill:#0060af;fill-opacity:1;fill-rule:nonzero;stroke:none"
           id="path46" />
        <path
           inkscape:connector-curvature="0"
           d="M 989.05162,27.010645 1000,282.06386 h -81.47846 l -0.0481,-43.7427 h -55.55839 l -18.28589,43.7427 h -88.36393 l 92.38163,-182.129935 -20.83157,-0.13562 39.58083,-72.78766 z m -71.10645,78.025925 -31.41264,74.18607 h 32.35913"
           style="fill:#0060af;fill-opacity:1;fill-rule:nonzero;stroke:none"
           id="path48" />
        <path
           inkscape:connector-curvature="0"
           d="m 528.93477,27.010645 c 40.34935,0.22602 63.15021,22.12841 63.15021,53.76716 0,29.166455 -24.04686,54.984825 -50.44445,68.334775 27.1774,9.99042 29.52811,34.51491 29.52811,51.86558 0,41.9174 -42.06151,81.0857 -96.73556,81.0857 H 355.19617 l 46.51149,-179.59282 -19.10526,-0.11019 39.05531,-75.350205 c 0,0 74.46586,-0.22604 107.27706,0 M 489.3483,130.41969 c 8.3462,0 23.08339,-2.11332 26.7677,-18.26612 4.03747,-17.534195 -9.79278,-18.006105 -16.42679,-18.006105 l -23.70499,-0.10383 -8.26707,36.376905 z m -33.51472,45.07069 -10.91448,41.91738 h 27.91199 c 10.98228,0 25.94835,-5.4502 29.61569,-19.0911 3.62216,-13.68051 -6.84026,-22.82628 -17.78298,-22.82628"
           style="fill:#0060af;fill-opacity:1;fill-rule:nonzero;stroke:none"
           id="path50" />
      </g>
      <path
         style="fill:#00a6b5;fill-opacity:1;stroke-width:0.288625"
         d="m 269.13755,-198.40294 c 0,-0.34305 5.34531,-32.2768 5.6553,-33.78573 l 0.16307,-0.79372 h 24.51023 c 13.48063,0 24.51021,0.0718 24.51021,0.1595 0,0.0877 -1.29881,7.82172 -2.88625,17.18667 -1.58744,9.36495 -2.88626,17.15101 -2.88626,17.30234 0,0.1723 -9.17089,0.27516 -24.53315,0.27516 -18.80454,0 -24.53315,-0.0804 -24.53315,-0.34422 z"
         id="path138" />
      <path
         style="fill:#00a6b5;fill-opacity:1;stroke-width:0.288625"
         d="m 56.027899,-198.90885 c 0.09386,-0.46934 1.428205,-8.29543 2.965221,-17.39129 l 2.794557,-16.53793 24.584701,-0.0738 24.584702,-0.0738 -0.156,0.79534 c -0.0858,0.43744 -1.4192,8.26352 -2.96309,17.3913 l -2.80708,16.59595 -24.586839,0.0738 -24.586836,0.0738 z"
         id="path136" />
      <path
         style="fill:#00a6b5;fill-opacity:1;stroke-width:0.288625"
         d="m 551.49661,-59.879357 c 0.0804,-0.357174 6.81499,-38.412421 14.96592,-84.567213 l 14.81984,-83.91781 h 24.31842 24.31841 v 1.32162 c 0,1.00439 -27.69966,158.871449 -29.17887,166.297527 l -0.30184,1.515283 h -24.54398 -24.54397 z"
         id="path124" />
      <path
         style="fill:#00a6b5;fill-opacity:1;stroke-width:0.288625"
         d="m 244.6044,-59.562504 c 0,-0.575462 21.40546,-122.464656 21.54663,-122.693076 0.0739,-0.11956 11.10165,-0.21738 24.50614,-0.21738 22.63451,0 24.37181,0.0346 24.37181,0.48502 0,0.34201 -16.60941,95.528812 -21.25671,121.819957 l -0.16582,0.938033 h -24.50102 c -18.29922,0 -24.50103,-0.08418 -24.50103,-0.332554 z"
         id="path122" />
      <path
         style="fill:#00a6b5;fill-opacity:1;stroke-width:0.288625"
         d="m 31.477372,-59.733428 c 0.06263,-0.278691 4.859411,-27.651921 10.659481,-60.829402 5.800099,-33.17748 10.617746,-60.67986 10.705892,-61.11641 l 0.160303,-0.79372 h 24.510235 c 19.423734,0 24.507087,0.0749 24.495227,0.36078 -0.008,0.19843 -4.848732,27.89564 -10.756633,61.54935 l -10.741653,61.188567 -24.573386,0.07377 c -23.305514,0.06997 -24.56747,0.04763 -24.459466,-0.432938 z"
         id="path120" />
      <path
         style="fill:#00a6b5;fill-opacity:1;stroke-width:0.288625"
         d="m 351.71216,-58.366868 c -6.98603,-0.484686 -12.47153,-1.425215 -16.32901,-2.799741 -6.47808,-2.308315 -10.2832,-6.780772 -11.73524,-13.793421 -0.53061,-2.562565 -0.57991,-3.549811 -0.43961,-8.803072 0.15678,-5.870731 0.66439,-10.341987 1.90045,-16.740268 0.32199,-1.66681 2.47228,-14.07048 4.77843,-27.56372 2.30611,-13.49323 4.25993,-24.82538 4.34182,-25.18255 l 0.14887,-0.64941 h -8.80856 c -8.20305,0 -8.80743,-0.0347 -8.79196,-0.5051 0.009,-0.2778 1.08841,-6.67446 2.39833,-14.21479 l 2.38168,-13.7097 9.09773,-0.0761 9.0977,-0.0761 1.79883,-10.02575 c 0.98932,-5.51415 2.52758,-14.08453 3.41834,-19.04528 l 1.61953,-9.01954 h 24.05002 c 13.22753,0 24.04333,0.0974 24.03513,0.21647 -0.008,0.11906 -1.53626,8.65876 -3.39565,18.97712 l -3.38072,18.76064 11.788,0.0754 11.78801,0.0754 -0.16307,0.7905 c -0.0897,0.43478 -1.14143,6.50528 -2.33717,13.49002 -1.19575,6.98473 -2.24669,13.05668 -2.33539,13.49323 l -0.16131,0.79372 h -11.81072 c -7.04529,0 -11.81069,0.10775 -11.81069,0.26705 0,0.14688 -1.8944,10.9595 -4.20975,24.02806 -4.46275,25.18896 -4.88357,28.01526 -4.42783,29.737841 0.43323,1.637438 1.96592,3.458831 3.54819,4.21659 2.9875,1.430707 5.29437,1.784522 11.63512,1.784522 h 5.87615 l -0.15086,0.649407 c -0.083,0.357173 -1.25056,7.792883 -2.5946,16.523798 -1.34407,8.730916 -2.51387,16.272349 -2.59959,16.758743 l -0.15583,0.884351 -8.72791,0.363965 c -11.54441,0.481419 -24.89449,0.626063 -29.33686,0.317855 z"
         id="path118" />
      <path
         id="path108"
         style="fill:#00a6b5;fill-opacity:1;stroke-width:0.288625"
         d="m 416.29141,-60.734863 c -3.82671,-1.912703 -4.33882,-2.267137 -6.76731,-4.683728 -2.74985,-2.736384 -4.33207,-5.112876 -5.68863,-8.544325 -1.63602,-4.138344 -1.96153,-7.331576 -1.46966,-14.418191 0.5057,-7.286472 1.46957,-10.953073 4.32471,-16.451643 1.70577,-3.28504 3.26735,-5.31238 6.97255,-9.05212 6.93148,-6.99614 14.32286,-11.30465 24.33934,-14.1877 4.21636,-1.21359 18.99521,-3.70367 31.68647,-5.33882 14.25653,-1.83682 22.08229,-3.32832 25.06423,-4.77695 1.98533,-0.9645 4.20504,-3.42075 5.00433,-5.53763 1.24062,-3.28587 0.27823,-7.27865 -2.21229,-9.17823 -1.30421,-0.99475 -5.39631,-2.21717 -9.18365,-2.74339 -3.87595,-0.53853 -10.27887,0.53379 -14.20392,2.37878 -2.20512,1.03653 -4.85554,3.74316 -5.98744,6.11442 -0.54043,1.13212 -1.05536,2.2857 -1.14435,2.5635 -0.15236,0.47566 -1.5498,0.5051 -23.97521,0.5051 h -23.81343 l 0.16873,-0.93803 c 2.42257,-13.46886 10.30202,-24.04308 22.90686,-30.74108 11.17696,-5.93924 25.79549,-8.87311 47.19024,-9.47088 17.83162,-0.49821 34.51555,1.88357 44.03995,6.28712 5.41681,2.50442 9.81231,6.28017 11.85722,10.1854 2.13023,4.06814 3.41534,10.20689 3.41534,16.31456 0,4.34825 -0.29276,7.81781 -1.18054,13.9911 -0.60787,4.22697 -11.16463,63.879315 -11.36107,64.197132 -0.0621,0.100438 -0.25887,1.248971 -0.43733,2.552293 -0.57572,4.204864 0.63561,7.961885 3.38382,10.495074 1.25555,1.157327 1.28458,1.223287 1.04179,2.365703 l -0.24975,1.175184 -4.18506,-0.08849 c -2.30179,-0.04867 -13.66641,-0.366693 -25.25472,-0.706714 l -21.06965,-0.618218 -0.0775,-6.560698 -0.0776,-6.560702 -1.79849,1.459991 c -8.03498,6.522623 -18.3731,11.430757 -28.49635,13.52893 -14.98731,2.737022 -30.29713,2.63482 -42.76163,-3.516748 z m 54.30661,-22.179031 c 2.82285,-0.452801 6.40316,-1.783352 9.0069,-3.347231 8.01952,-4.816723 12.50853,-13.027357 14.21708,-26.003725 0.0888,-0.67466 0.0984,-1.22666 0.0214,-1.22666 -0.0771,0 -1.08523,0.37377 -2.24025,0.83061 -4.32583,1.71095 -9.62439,3.25181 -14.47289,4.20881 -8.07348,1.59355 -13.49779,3.18781 -17.19223,5.05296 -2.10774,1.0641 -4.43608,3.561983 -5.58905,5.996021 -0.80325,1.695679 -0.93694,2.316503 -1.02275,4.749084 -0.0922,2.613949 -0.0455,2.896132 0.70826,4.281098 0.9152,1.681491 1.90799,2.608376 3.84547,3.59017 3.56132,1.804661 8.5492,2.537599 12.71819,1.868863 z"
         sodipodi:nodetypes="cssssssssssssssscssssssssssscsscccsccsssssssssssss" />
      <path
         id="path152"
         style="fill:#00a6b5;fill-opacity:1;stroke-width:0.288625"
         d="m 144.74004,-18.827037 c -12.16293,-1.002626 -21.58805,-3.109216 -28.55166,-6.381525 -6.12321,-2.87739 -11.85592,-7.481587 -15.17003,-12.183741 -2.562269,-3.63542 -4.499955,-9.122216 -4.909024,-13.900451 -0.09891,-1.15548 -0.05178,-2.200142 0.110082,-2.440301 0.247323,-0.366889 3.265507,-0.338061 23.896762,0.228239 12.9875,0.356492 24.15534,0.714217 24.81736,0.794949 1.15912,0.141345 1.21081,0.191685 1.39565,1.359197 0.43871,2.771311 1.61671,4.238746 4.62591,5.762644 2.27114,1.150126 4.55188,1.473481 9.03227,1.280561 5.7904,-0.249326 9.87861,-1.605565 13.5227,-4.486063 3.86756,-3.057102 8.2486,-11.892918 8.91734,-17.98467 0.11063,-1.007643 0.62554,-4.040059 1.14426,-6.738705 0.51869,-2.698647 0.91676,-4.93465 0.88458,-4.968896 -0.0322,-0.03424 -1.0263,0.658329 -2.20908,1.539055 -8.78455,6.541129 -18.5664,10.364234 -29.07107,11.362026 -3.71253,0.352637 -12.18723,0.117049 -15.79943,-0.439204 -9.00999,-1.387476 -17.85188,-5.906795 -23.86011,-12.195536 -8.0818,-8.459132 -12.54513,-21.339408 -11.92262,-34.406172 0.5909,-12.40253 2.71804,-21.56488 7.57191,-32.61466 3.79029,-8.62858 8.84836,-16.39624 14.61671,-22.44682 9.72563,-10.20149 21.52902,-16.20273 36.25463,-18.43306 4.97948,-0.75418 12.5335,-0.69365 16.36171,0.13111 10.77611,2.32162 19.4276,7.94049 24.6426,16.00456 1.4674,2.26909 1.70115,2.51209 1.83793,1.9105 0.0862,-0.37909 0.68032,-3.61159 1.32035,-7.18332 0.64002,-3.57174 1.23621,-6.85125 1.32487,-7.28779 l 0.1612,-0.79372 h 21.62947 21.62946 l -0.15265,0.6494 c -0.084,0.35718 -4.11372,22.92407 -8.95503,50.14865 -10.49595,59.022696 -9.92032,55.928226 -11.67718,62.776006 -4.27382,16.658183 -7.67099,23.858801 -15.31327,32.457737 -4.85387,5.461472 -12.76079,10.714865 -19.90672,13.226119 -4.9174,1.728092 -14.42434,3.657795 -23.23379,4.71595 -5.5488,0.666502 -19.70598,0.971539 -24.96609,0.537931 z m 29.09761,-80.823049 c 3.63146,-0.911394 6.78576,-2.667024 9.30026,-5.176394 4.72341,-4.71377 8.28773,-11.63268 9.62546,-18.68457 0.69555,-3.66675 0.90948,-11.62225 0.37861,-14.08067 -1.06491,-4.93146 -2.96579,-8.13758 -6.18838,-10.43754 -3.22984,-2.30516 -5.15119,-2.84851 -9.88753,-2.79616 -8.29393,0.0917 -13.25488,2.68899 -17.55875,9.19294 -3.33651,5.04205 -5.33382,10.20228 -6.58522,17.01332 -0.64883,3.5315 -0.72727,4.59681 -0.60672,8.24112 0.11491,3.47452 0.26597,4.5775 0.88946,6.49435 1.93555,5.95084 6.22239,9.74171 12.24793,10.830899 1.89038,0.341707 5.7345,0.06787 8.38488,-0.597295 z" />
      <path
         id="path112"
         style="fill:#00a6b5;fill-opacity:1;stroke-width:0.288625"
         d="m -74.706556,-56.21196 c -16.825442,-2.292453 -28.395164,-11.575829 -34.336514,-27.551142 -3.00237,-8.072893 -3.62952,-16.203967 -2.35536,-30.536828 0.60442,-6.79893 2.82946,-15.40695 6.43087,-24.87923 2.73882,-7.20354 4.4456,-10.56967 8.561258,-16.88458 10.504287,-16.11738 23.820594,-25.76469 40.438023,-29.29628 10.098221,-2.14609 24.978848,-0.12124 32.630507,4.44013 2.837447,1.6915 6.730598,5.20677 8.813059,7.95762 0.786937,1.03951 1.514186,1.86255 1.616128,1.82898 0.101914,-0.0336 2.471268,-13.02171 5.26519,-28.86253 l 5.0798922,-28.8015 24.5913678,-0.0738 24.591368,-0.0738 -0.149392,0.65103 c -0.08217,0.35807 -6.780358,38.31663 -14.88487,84.35237 -8.104512,46.035738 -14.802496,83.928633 -14.884465,84.206435 -0.140243,0.475337 -1.448957,0.505095 -22.2148852,0.505095 H -27.580276 l 0.146276,-0.649407 c 0.08044,-0.357174 0.676105,-3.70162 1.323693,-7.432102 0.647589,-3.730482 1.251739,-7.107398 1.34257,-7.504258 0.121049,-0.5289 -0.866684,0.286761 -3.69934,3.054819 -5.909632,5.774861 -12.716745,10.529011 -17.984272,12.560385 -3.092303,1.192521 -8.000665,2.440289 -11.749245,2.986821 -3.770976,0.549794 -12.476753,0.550709 -16.505962,0.0017 z m 33.204149,-35.053469 c 5.477445,-1.308396 9.849455,-4.182931 13.391869,-8.805001 1.736341,-2.26551 3.60317,-5.33052 4.607643,-7.56489 3.517766,-7.82505 5.169309,-20.91818 3.487431,-27.6474 -0.928363,-3.71426 -2.412792,-6.5697 -4.511704,-8.67863 -3.107918,-3.12277 -6.747165,-4.30932 -12.399921,-4.0429 -5.897106,0.27794 -9.81886,1.89434 -14.376716,5.92554 -2.450083,2.16699 -6.209745,8.39372 -8.114701,13.43951 -2.157301,5.7143 -3.508269,14.37082 -3.284816,21.04792 0.163305,4.87964 0.682744,7.19087 2.368287,10.537924 1.505325,2.989171 4.582359,5.302211 8.329409,6.261296 1.994487,0.5105 7.405231,0.266643 10.503219,-0.473369 z" />
    </g>
  </g>
</svg>
